PathFileType	4	(X/Y/Z)	C:/Users/opensim2020/Desktop/walking_exp_matlab/subject03_walking12_straight_02.trc																																																																																																																																														
DataRate	CameraRate	NumFrames	NumMarkers	Units	OrigDataRate	OrigDataStartFrame	OrigNumFrames																																																																																																																																										
100	100	7	48	mm	100	1241	187																																																																																																																																										
Frame#	Time	LFHD			RFHD			LBHD			RBHD			C7			T10			CLAV			STRN			RBAK			LSHO			LUPA			LELB			LFRM			LWRA			LWRB			LFIN			RSHO			RUPA			RELB			RFRM			RWRA			RWRB			RFIN			LASI			RASI			LPSI			RPSI			LTHI			LKNE			LTIB			LANK			LHEE			LTOE			RTHI			RKNE			RTIB			RANK			RHEE			RTOE			*39			*40			*41			*42			*43			*44			*45			*46			*47		
		X1	Y1	Z1	X2	Y2	Z2	X3	Y3	Z3	X4	Y4	Z4	X5	Y5	Z5	X6	Y6	Z6	X7	Y7	Z7	X8	Y8	Z8	X9	Y9	Z9	X10	Y10	Z10	X11	Y11	Z11	X12	Y12	Z12	X13	Y13	Z13	X14	Y14	Z14	X15	Y15	Z15	X16	Y16	Z16	X17	Y17	Z17	X18	Y18	Z18	X19	Y19	Z19	X20	Y20	Z20	X21	Y21	Z21	X22	Y22	Z22	X23	Y23	Z23	X24	Y24	Z24	X25	Y25	Z25	X26	Y26	Z26	X27	Y27	Z27	X28	Y28	Z28	X29	Y29	Z29	X30	Y30	Z30	X31	Y31	Z31	X32	Y32	Z32	X33	Y33	Z33	X34	Y34	Z34	X35	Y35	Z35	X36	Y36	Z36	X37	Y37	Z37	X38	Y38	Z38	X39	Y39	Z39	X40	Y40	Z40	X41	Y41	Z41	X42	Y42	Z42	X43	Y43	Z43	X44	Y44	Z44	X45	Y45	Z45	X46	Y46	Z46	X47	Y47	Z47	X48	Y48	Z48
																																																																																																																																																	
141	1.4	519.91486	1617.14453	-1482.37354	491.23352	1616.3623	-1352.16248	389.55963	1592.16846	-1507.69287	365.77765	1590.20789	-1379.06763	332.41061	1420.1366	-1441.7738	314.40451	1101.55981	-1431.5188	455.21344	1347.05029	-1446.65625	507.37238	1185.27588	-1453.45361	294.54349	1239.78528	-1336.32605	390.22757	1380.08252	-1598.5603	380.74298	1182.46265	-1667.32202	400.59436	1060.83936	-1677.3396	468.01169	951.22876	-1671.91199	535.5824	856.88184	-1635.09363	505.02951	843.18225	-1679.6615	558.18744	779.70917	-1668.9281	416.11795	1374.67346	-1285.18933	446.13391	1159.08984	-1201.84961	479.31342	1051.90051	-1186.91687	525.32654	923.11365	-1186.17737	572.89233	837.17072	-1225.13098	547.60608	825.55701	-1178.59387	588.33514	764.80426	-1187.95557	481.45029	947.37177	-1558.28198	493.63239	947.82867	-1321.87598	321.37027	957.92352	-1500.55347	330.98605	972.91583	-1351.79358	510.85031	652.08002	-1610.38818	581.18567	488.11691	-1583.651	513.31982	299.47162	-1574.73645	468.83289	96.61008	-1528.93506	427.28915	66.13535	-1485.02063	608.06757	45.22711	-1521.20618	429.21597	649.32971	-1284.99878	422.41833	471.35663	-1325.93311	358.11884	288.81235	-1322.25549	302.63928	79.58434	-1371.77258	252.36392	51.33957	-1418.41492	440.22998	37.71056	-1397.03381	438.70419	1689.20398	-1446.94629	NaN	NaN	NaN	NaN	NaN	NaN	NaN	NaN	NaN	NaN	NaN	NaN	NaN	NaN	NaN	NaN	NaN	NaN	NaN	NaN	NaN	NaN	NaN	NaN
142	1.41	532.60608	1616.14282	-1482.36914	503.2951	1615.44739	-1352.30908	402.43683	1590.99963	-1508.38708	378.05945	1589.0647	-1379.82104	345.15945	1419.01086	-1442.51538	326.51886	1100.5625	-1432.45483	468.00266	1345.94373	-1446.95044	519.82446	1183.93555	-1453.43103	307.01035	1238.81238	-1336.6803	403.48392	1378.49902	-1599.24072	392.3428	1180.51099	-1667.27136	410.40939	1058.36511	-1677.42896	473.02808	945.4278	-1672.75757	535.81506	847.52362	-1636.94446	504.55798	835.64496	-1681.34326	554.39178	769.6441	-1671.52075	428.58276	1373.67371	-1285.48218	460.12823	1158.81641	-1201.60913	494.73648	1052.28162	-1186.50403	544.39227	924.96588	-1186.55603	594.23157	840.80963	-1226.31067	569.56598	827.97614	-1180.16895	611.88757	768.60193	-1189.66455	495.48969	946.6861	-1558.17041	504.47549	946.35254	-1321.78711	334.03427	956.43158	-1501.82153	342.17194	971.52924	-1353.00952	525.4726	651.84192	-1610.79321	595.91534	488.32159	-1583.38513	538.58533	296.01978	-1575.8512	508.3873	89.91379	-1531.45508	469.45587	56.83133	-1487.16626	650.92719	46.25423	-1524.52966	436.75757	648.50476	-1285.07507	428.1098	470.45804	-1326.07898	361.27704	288.73199	-1322.84668	303.04459	80.1908	-1372.43506	252.58553	52.34636	-1419.27869	440.29388	37.67842	-1397.11353	451.1488	1688.02075	-1447.48083	NaN	NaN	NaN	NaN	NaN	NaN	NaN	NaN	NaN	NaN	NaN	NaN	NaN	NaN	NaN	NaN	NaN	NaN	NaN	NaN	NaN	NaN	NaN	NaN
143	1.42	545.28717	1615.11902	-1482.37415	515.28729	1614.41455	-1352.39844	415.49338	1589.64685	-1509.06982	390.21506	1587.78625	-1380.73022	357.83041	1417.88623	-1443.37476	338.82388	1099.35791	-1433.50378	480.84317	1344.66504	-1447.24133	532.47675	1182.5625	-1453.42566	319.34317	1237.74268	-1337.32361	416.95151	1376.82629	-1599.92932	404.14709	1178.44678	-1667.21387	420.53906	1055.83691	-1677.57922	477.93182	939.69983	-1673.62134	535.73218	838.44958	-1638.81519	503.7048	828.48163	-1683.14746	550.21674	760.2348	-1674.17151	440.95673	1372.57813	-1285.91357	474.02682	1158.28687	-1201.43286	509.90768	1052.33325	-1186.21924	563.14288	926.62903	-1187.04785	615.78705	844.69293	-1227.32349	590.98254	830.18713	-1181.53906	635.50897	772.45538	-1191.64441	508.17819	945.07281	-1558.26929	515.55951	944.93011	-1321.50549	346.68112	954.85138	-1503.29944	353.28552	969.83905	-1354.4104	539.78925	651.28723	-1611.12866	609.68829	487.7168	-1582.89148	563.0238	292.78085	-1576.89258	547.84619	84.44218	-1534.4082	511.44986	49.35624	-1489.7207	693.32343	47.92751	-1527.93872	444.56088	647.49323	-1285.44971	434.11911	469.40649	-1326.27612	364.66003	288.60013	-1323.4364	303.24872	81.02372	-1373.13721	252.62144	53.71075	-1420.18127	440.36313	37.61354	-1397.2002	463.73355	1685.74939	-1448.0542	NaN	NaN	NaN	NaN	NaN	NaN	NaN	NaN	NaN	NaN	NaN	NaN	NaN	NaN	NaN	NaN	NaN	NaN	NaN	NaN	NaN	NaN	NaN	NaN
144	1.43	557.97156	1613.91736	-1482.41736	527.2782	1613.35962	-1352.61121	428.20688	1588.15283	-1509.86987	402.32974	1586.44604	-1381.68518	370.73987	1416.34314	-1444.03503	351.00748	1097.99268	-1434.71643	493.6214	1343.22949	-1447.45789	545.0257	1181.01245	-1453.33093	331.60251	1236.59949	-1337.93396	430.46841	1375.05212	-1600.6521	416.14191	1176.25708	-1667.19983	430.75131	1053.22534	-1677.70142	482.74634	934.1778	-1674.49133	535.59448	829.85657	-1640.80969	502.54312	821.77765	-1685.04468	545.30011	751.08411	-1676.66223	453.46219	1371.07825	-1286.16174	487.82138	1157.49658	-1201.33325	524.97638	1052.22083	-1186.01709	581.54706	928.08832	-1187.60388	636.60657	848.07843	-1228.41492	611.96399	832.38989	-1183.15881	658.52148	776.37769	-1193.83704	522.06049	943.67334	-1558.26685	526.14404	943.27216	-1321.14502	359.41861	953.23425	-1504.89319	364.42484	967.93927	-1355.89661	553.02509	649.94696	-1611.03406	622.60547	486.56741	-1582.48572	586.78503	289.70273	-1578.05969	586.53369	80.53743	-1537.68213	552.54163	43.68527	-1492.07251	734.5661	49.94673	-1531.52979	452.8287	646.34326	-1286.09265	440.53851	468.43634	-1326.52747	368.20392	288.60962	-1324.00745	303.78821	81.75278	-1373.87915	252.8862	55.07368	-1420.98413	440.30823	37.4178	-1397.44043	475.70309	1686.54187	-1448.30591	NaN	NaN	NaN	NaN	NaN	NaN	NaN	NaN	NaN	NaN	NaN	NaN	NaN	NaN	NaN	NaN	NaN	NaN	NaN	NaN	NaN	NaN	NaN	NaN
145	1.44	570.61224	1612.72192	-1482.41467	539.27228	1612.34546	-1352.8092	441.23047	1586.54492	-1510.54724	414.50308	1584.83728	-1382.5387	383.58255	1415.03931	-1444.77783	363.35516	1096.40161	-1436.02686	506.48685	1341.75806	-1447.76172	557.67236	1179.43518	-1453.0625	343.95724	1235.29224	-1338.79297	444.14252	1373.2384	-1601.401	428.36356	1174.10486	-1667.3313	441.16644	1050.73376	-1677.96277	487.45972	928.93585	-1675.33276	534.45026	821.57037	-1642.57849	501.16727	815.74646	-1687.10474	540.00171	742.78937	-1679.19556	466.04187	1369.60059	-1286.55664	501.46851	1156.63818	-1201.37354	539.88605	1051.97058	-1185.93323	599.50018	929.37476	-1188.28296	657.29767	851.67523	-1229.4209	632.3819	834.62744	-1184.74719	680.46515	779.95795	-1195.91443	535.88062	941.98578	-1558.26709	537.0061	941.57965	-1320.74341	372.55652	951.25824	-1506.57336	375.65332	965.91626	-1357.57776	566.13831	648.5531	-1611.34888	634.41309	484.64636	-1581.77954	609.54431	287.03564	-1579.23132	624.38196	77.80699	-1540.35974	592.71783	39.74646	-1495.1073	774.32532	52.84811	-1535.35107	461.02148	645.55237	-1285.61096	447.32025	467.52036	-1326.75085	372.0455	288.66931	-1324.57825	304.21191	82.94737	-1374.5127	253.20714	56.76017	-1421.78613	440.55997	37.42239	-1397.43884	487.83304	1685.23401	-1448.96411	NaN	NaN	NaN	NaN	NaN	NaN	NaN	NaN	NaN	NaN	NaN	NaN	NaN	NaN	NaN	NaN	NaN	NaN	NaN	NaN	NaN	NaN	NaN	NaN
146	1.45	583.21564	1611.58557	-1482.46741	551.10284	1611.10193	-1352.92554	454.13239	1584.90833	-1511.31616	426.62958	1583.2196	-1383.51709	396.52945	1413.547	-1445.6571	375.59027	1095.02466	-1437.7406	519.58673	1340.31226	-1448.05188	570.41907	1177.91223	-1452.69556	355.93051	1234.22913	-1339.71033	457.87262	1371.40637	-1602.12463	440.93344	1171.94824	-1667.50891	451.72577	1048.31555	-1678.09985	492.24103	924.16992	-1676.0874	532.03467	813.51874	-1643.74377	499.75458	810.38403	-1688.98315	534.35944	735.30902	-1681.7793	478.28024	1368.27783	-1286.99634	515.08209	1155.72437	-1201.5481	554.66406	1051.51965	-1186.04578	617.1062	930.45154	-1189.10046	676.81091	854.7973	-1230.68835	652.16461	836.45013	-1186.42297	702.45245	783.73047	-1198.08081	549.28204	940.0993	-1558.22009	547.96802	939.90479	-1320.32385	385.90012	949.36127	-1508.50879	387.02869	963.88129	-1359.42725	577.55658	645.86017	-1611.65918	645.64905	482.26868	-1580.94031	631.18689	284.98013	-1580.09119	660.20752	76.23272	-1544.63879	631.2522	37.0724	-1498.73267	812.21936	57.07008	-1539.12549	469.69925	644.68793	-1286.07397	454.28531	466.61508	-1326.9198	376.1792	288.88663	-1324.92944	304.83047	84.16084	-1374.95752	253.85349	58.63614	-1422.47205	440.69113	37.43998	-1397.40918	499.86954	1683.87402	-1449.61206	NaN	NaN	NaN	NaN	NaN	NaN	NaN	NaN	NaN	NaN	NaN	NaN	NaN	NaN	NaN	NaN	NaN	NaN	NaN	NaN	NaN	NaN	NaN	NaN
147	1.46	595.8963	1610.29468	-1482.47644	563.04132	1609.92224	-1353.24707	466.8486	1583.23633	-1512.19458	438.7099	1581.5719	-1384.46057	409.40665	1412.01477	-1446.50256	388.01489	1093.58008	-1439.52234	532.37292	1338.82227	-1448.2312	583.20551	1176.30774	-1452.27136	367.98413	1232.9613	-1340.7937	471.7312	1369.63965	-1602.84937	453.73389	1169.92175	-1667.78113	462.48862	1046.04321	-1678.29443	497.11954	919.85211	-1676.81921	530.4624	806.74603	-1645.47119	498.51627	805.85095	-1691.02942	528.42572	728.74121	-1684.43018	490.55118	1366.82117	-1287.53369	528.54974	1154.74744	-1201.96997	569.23462	1051.12988	-1186.40234	634.03644	931.38892	-1190.08435	695.64038	857.61511	-1232.02136	671.1496	838.09253	-1188.14771	723.258	787.19513	-1200.20459	563.31244	938.23859	-1558.18787	559.09686	938.29022	-1319.95923	399.22891	947.58582	-1510.68359	398.45273	961.97534	-1361.51697	588.83997	643.14166	-1612.729	656.34198	479.40979	-1579.74792	651.58838	283.35428	-1581.00415	694.05103	75.84169	-1548.96045	667.19391	35.31892	-1503.49744	847.60577	63.16933	-1542.79333	478.64774	643.91388	-1286.39307	461.55814	465.86005	-1327.03784	380.43829	289.1861	-1325.22754	305.62479	85.72282	-1375.42261	254.12465	61.00779	-1422.86877	440.78717	37.36122	-1397.44055	512.60187	1680.02307	-1450.45752	NaN	NaN	NaN	NaN	NaN	NaN	NaN	NaN	NaN	NaN	NaN	NaN	NaN	NaN	NaN	NaN	NaN	NaN	NaN	NaN	NaN	NaN	NaN	NaN
